<svg width="1798" height="304" viewBox="0 0 1798 304" fill="none" xmlns="http://www.w3.org/2000/svg">
<path d="M268.133 59.4994C267.629 58.7347 266.978 58.0789 266.219 57.5702C265.448 57.0664 264.587 56.7194 263.685 56.5488C262.775 56.3491 261.834 56.3491 260.925 56.5488C260.027 56.7694 259.183 57.1751 258.447 57.7404C257.702 58.2992 257.087 59.016 256.645 59.8401C256.156 60.6273 255.866 61.5236 255.801 62.4502C255.698 63.3867 255.794 64.3345 256.082 65.2306C256.341 66.0918 256.783 66.8858 257.377 67.5572C270.583 84.832 279.746 104.889 284.183 126.231C280.083 123.338 275.75 120.794 271.231 118.627H270.724C223.082 98.0287 169.809 97.1208 128.644 98.5394C126.946 98.7052 125.375 99.5171 124.251 100.809C123.12 102.109 122.516 103.791 122.562 105.519C122.633 107.261 123.359 108.911 124.593 110.134C125.827 111.356 127.477 112.06 129.207 112.101C168.965 110.683 220.379 111.534 265.599 131.054C272.244 134.345 287.506 142.8 285.985 151.311C283.845 163.398 255.181 176.676 229.671 182.123C227.819 180.486 225.526 179.439 223.082 179.116C220.446 178.842 217.791 179.397 215.48 180.705C213.158 182.035 211.343 184.108 210.323 186.596C209.303 189.083 209.136 191.843 209.848 194.437C210.532 197.026 212.045 199.314 214.154 200.946C216.262 202.578 218.847 203.461 221.505 203.459C224.154 203.477 226.732 202.597 228.826 200.962C230.726 199.512 232.172 197.542 232.994 195.288C241.835 193.245 267.908 186.549 284.746 173.725C279.495 201.543 266.182 227.169 246.487 247.368C226.792 267.567 201.599 281.432 174.089 287.213C176.932 283.114 179.437 278.787 181.579 274.276V273.708C197.516 235.69 204.104 189.216 201.289 131.848C201.256 130.968 201.05 130.104 200.683 129.305C200.315 128.506 199.794 127.789 199.149 127.195C197.834 125.973 196.094 125.32 194.306 125.379C192.526 125.494 190.855 126.285 189.632 127.592C188.449 128.933 187.824 130.68 187.886 132.472C190.476 188.025 184.338 232.569 169.19 268.658C165.98 275.354 157.589 290.788 149.142 289.256C137.879 287.157 124.983 260.317 119.183 235.066H122.449C123.051 235.161 123.668 235.065 124.213 234.79C124.758 234.515 125.205 234.076 125.49 233.534C125.78 232.948 125.887 232.287 125.797 231.638C125.706 230.99 125.423 230.385 124.983 229.902C122.393 226.043 119.352 222.412 116.818 218.837L116.029 217.872C115.621 217.027 115.046 216.274 114.34 215.659L111.468 212.084C111.065 211.568 110.543 211.159 109.947 210.893C109.339 210.723 108.697 210.723 108.089 210.893C107.45 211.004 106.849 211.278 106.343 211.687C105.827 212.088 105.452 212.645 105.273 213.276C102.739 220.085 100.43 227.349 98.3468 234.839C98.1261 235.48 98.0884 236.171 98.2377 236.833C98.387 237.495 98.7174 238.101 99.1915 238.584C99.6325 238.971 100.173 239.224 100.751 239.315C101.329 239.405 101.921 239.329 102.458 239.095C103.64 238.584 104.823 238.073 106.005 237.676C108.089 246.812 114.678 271.722 126.842 288.122C106.86 284.333 87.9459 276.179 71.4287 264.232C71.7292 261.906 71.3577 259.542 70.3587 257.423C69.2784 255.003 67.438 253.009 65.1216 251.748C62.8351 250.556 60.2401 250.1 57.6881 250.443C55.1312 250.84 52.7675 252.051 50.9434 253.899C49.1193 255.747 47.9307 258.136 47.5516 260.714C47.1559 263.286 47.6109 265.918 48.8467 268.204C50.0459 270.526 51.9674 272.388 54.3168 273.505C56.6662 274.622 59.3141 274.933 61.8553 274.389H62.3621C87.4128 293.289 117.793 303.645 149.086 303.953C188.493 303.154 226.034 286.887 253.717 258.615C300.401 212.368 322.871 132.87 268.133 59.4994Z" fill="#3E75FF"/>
<path d="M43.3282 236.257C29.0675 218.054 19.4052 196.635 15.1712 173.839C19.4247 176.916 23.9486 179.594 28.6865 181.84H29.1933C61.5176 195.799 98.4594 202.268 145.425 202.268C153.14 202.268 161.362 202.267 170.541 201.7C171.423 201.695 172.291 201.481 173.076 201.076C173.886 200.719 174.615 200.197 175.215 199.543C175.816 198.888 176.276 198.116 176.567 197.274C177.24 195.62 177.24 193.765 176.567 192.11C176.219 191.29 175.7 190.555 175.047 189.954C174.381 189.37 173.619 188.909 172.794 188.592C171.959 188.314 171.083 188.18 170.204 188.195C131.234 189.784 80.4954 189.046 34.6558 169.243C28.0107 166.008 12.7497 157.894 14.2702 149.042C16.4101 137.182 44.1165 124.074 68.951 118.627L69.4578 119.251C70.9783 120.84 73.1745 120.84 77.1728 120.84H81.0585C85.1131 120.84 87.3657 120.84 88.8298 119.251C90.294 117.662 90.3503 115.449 90.3503 111.477V107.562C90.3503 103.476 90.3503 101.263 88.8298 99.7311C87.3093 98.199 84.9441 98.1989 81.0585 98.1989H77.2855C73.2309 98.1989 71.0345 98.1989 69.5704 99.7877C68.9786 100.52 68.539 101.364 68.2778 102.271C68.0166 103.177 67.9391 104.128 68.05 105.065C49.6186 108.824 32.0471 116.021 16.241 126.287C22.0815 99.2623 35.5394 74.5103 54.9985 55.0033C74.4576 35.4962 99.0908 22.0632 125.941 16.3173C123.077 20.4232 120.571 24.7709 118.451 29.3117V29.8224C98.347 76.8065 97.1643 129.692 98.4595 170.548C98.4776 171.419 98.666 172.279 99.0139 173.077C99.3617 173.876 99.8623 174.597 100.487 175.201C101.126 175.832 101.883 176.327 102.715 176.659C103.546 176.99 104.436 177.15 105.33 177.13C106.219 177.09 107.095 176.898 107.92 176.562C108.724 176.17 109.45 175.632 110.06 174.974C110.678 174.341 111.158 173.585 111.468 172.754C111.779 171.924 111.913 171.037 111.862 170.15C110.68 130.94 111.862 80.1544 130.84 35.1563C137.71 21.0271 144.693 13.6503 150.606 14.5582C161.869 16.2038 174.54 42.4763 180.509 67.4437H177.806C177.19 67.403 176.576 67.5418 176.037 67.8438C175.497 68.1457 175.056 68.5978 174.765 69.146C174.514 69.725 174.433 70.3646 174.533 70.9885C174.633 71.6124 174.909 72.194 175.328 72.6641C179.777 78.9059 184.338 84.8641 188.787 90.425C189.16 90.9584 189.676 91.3746 190.273 91.6256C190.871 91.8766 191.527 91.9522 192.166 91.8436C192.81 91.748 193.415 91.4729 193.912 91.0493C194.395 90.6417 194.764 90.1133 194.982 89.5171C197.46 82.6511 199.825 75.3878 201.908 67.8976C202.115 67.2503 202.141 66.5581 201.982 65.8972C201.823 65.2362 201.486 64.6324 201.007 64.1525C200.56 63.7769 200.02 63.5309 199.445 63.4409C198.869 63.351 198.28 63.4204 197.741 63.6418C196.461 64.2542 195.145 64.7848 193.799 65.2306C189.917 47.6185 182.875 30.869 173.019 15.8066C192.922 19.5208 211.778 27.5777 228.263 39.4121V42.2494C228.263 46.3349 228.263 48.548 229.784 50.0801C231.304 51.6122 233.669 51.5553 237.499 51.5553H241.384C245.439 51.5553 247.692 51.5554 249.099 50.0233C250.507 48.4912 250.62 46.3349 250.62 42.2494V38.561C250.62 34.4754 250.62 32.2624 249.099 30.7303C247.579 29.1982 245.214 29.1981 241.384 29.1981H236.823C166.487 -20.9069 90.4067 0.826182 46.1439 45.0866C-0.484089 91.3897 -22.7282 170.945 32.6284 244.429C33.2384 245.281 34.052 245.964 34.9937 246.414C35.9224 246.872 36.9444 247.105 37.9783 247.095C39.4418 247.104 40.8671 246.625 42.0329 245.734C42.7624 245.22 43.3606 244.539 43.7786 243.748C44.2335 242.986 44.5215 242.134 44.6233 241.251C44.7933 240.389 44.7933 239.502 44.6233 238.641C44.3688 237.761 43.9269 236.947 43.3282 236.257Z" fill="#3E75FF"/>
<path d="M431.14 231.628H412.6V64.0648H475.35C491.037 64.0648 503.793 68.8523 513.618 78.4274C523.601 87.8429 528.592 99.7319 528.592 114.094C528.592 128.297 523.601 140.187 513.618 149.762C503.793 159.177 491.037 163.885 475.35 163.885H431.14V231.628ZM431.14 81.0605V146.889H475.35C485.333 146.889 493.493 143.777 499.832 137.553C506.329 131.17 509.577 123.271 509.577 113.855C509.577 104.44 506.329 96.62 499.832 90.3962C493.493 84.1724 485.333 81.0605 475.35 81.0605H431.14Z" fill="#3E75FF"/>
<path d="M535.803 74.5974C535.803 71.2461 536.912 68.4534 539.13 66.2192C541.349 63.985 544.122 62.8679 547.449 62.8679C550.619 62.8679 553.312 63.985 555.531 66.2192C557.908 68.4534 559.096 71.2461 559.096 74.5974C559.096 77.789 557.908 80.502 555.531 82.7362C553.312 84.9703 550.619 86.0874 547.449 86.0874C544.122 86.0874 541.349 84.9703 539.13 82.7362C536.912 80.502 535.803 77.789 535.803 74.5974ZM556.244 231.628H538.417V110.504H556.244V231.628Z" fill="#3E75FF"/>
<path d="M636.375 108.11C651.27 108.11 663.551 113.057 673.217 122.951C683.041 132.846 687.954 145.293 687.954 160.294V231.628H670.127V162.449C670.127 151.597 666.562 142.58 659.431 135.399C652.3 128.218 643.347 124.627 632.572 124.627C621.955 124.627 613.002 128.297 605.713 135.638C598.582 142.82 595.017 151.756 595.017 162.449V231.628H577.19V110.504H595.017V129.415C604.683 115.212 618.469 108.11 636.375 108.11Z" fill="#3E75FF"/>
<path d="M811.277 132.048V110.504H829.104V218.941C829.104 236.815 823.003 251.736 810.802 263.705C798.759 275.833 783.785 281.897 765.879 281.897C753.043 281.897 741.634 278.626 731.651 272.083C721.668 265.7 714.142 257.162 709.071 246.47L725.234 238.81C729.037 246.948 734.504 253.412 741.634 258.199C748.765 262.987 756.846 265.38 765.879 265.38C778.714 265.38 789.489 260.912 798.204 251.975C806.92 243.198 811.277 232.187 811.277 218.941V208.648C800.027 224.607 784.26 232.586 763.977 232.586C746.705 232.586 732.206 226.681 720.48 214.872C708.912 202.903 703.129 188.062 703.129 170.348C703.129 152.634 708.912 137.873 720.48 126.063C732.206 114.094 746.705 108.11 763.977 108.11C784.26 108.11 800.027 116.089 811.277 132.048ZM766.354 216.069C779.189 216.069 789.885 211.68 798.442 202.903C806.999 194.126 811.277 183.274 811.277 170.348C811.277 157.422 806.999 146.65 798.442 138.032C789.885 129.255 779.189 124.866 766.354 124.866C753.677 124.866 742.981 129.255 734.266 138.032C725.709 146.65 721.431 157.422 721.431 170.348C721.431 183.274 725.709 194.126 734.266 202.903C742.981 211.68 753.677 216.069 766.354 216.069Z" fill="#3E75FF"/>
<path d="M1033.64 200.988V64.0648H1052.18V231.628H1033.87L930.241 94.705V231.628H911.701V64.0648H930.003L1033.64 200.988Z" fill="#3E75FF"/>
<path d="M1130.32 108.11C1148.86 108.11 1164.07 114.733 1175.95 127.978C1188 141.064 1193.3 157.262 1191.88 176.572H1086.11C1087.37 188.7 1092.21 198.674 1100.6 206.494C1109.16 214.154 1119.54 217.984 1131.74 217.984C1141.09 217.984 1149.41 215.67 1156.7 211.042C1163.99 206.414 1169.53 200.11 1173.34 192.131L1188.55 198.594C1183.48 209.287 1175.95 217.904 1165.97 224.447C1155.99 230.83 1144.5 234.022 1131.5 234.022C1113.6 234.022 1098.54 228.038 1086.34 216.069C1074.3 203.94 1068.28 188.94 1068.28 171.066C1068.28 153.193 1074.22 138.271 1086.11 126.303C1097.99 114.174 1112.73 108.11 1130.32 108.11ZM1130.32 124.148C1119.38 124.148 1109.87 127.659 1101.79 134.681C1093.71 141.703 1088.64 150.719 1086.58 161.73H1173.81C1172.07 150.879 1167.16 141.942 1159.08 134.92C1151.15 127.739 1141.57 124.148 1130.32 124.148Z" fill="#3E75FF"/>
<path d="M1219.69 126.781H1192.59V110.504H1219.69V67.1767L1237.52 61.671V110.504H1274.12V126.781H1237.52V190.456C1237.52 199.392 1239.42 205.776 1243.22 209.606C1247.02 213.436 1253.28 215.351 1262 215.351H1274.12V231.628H1262C1247.58 231.628 1236.88 228.197 1229.91 221.335C1223.1 214.473 1219.69 203.94 1219.69 189.737V126.781Z" fill="#3E75FF"/>
<path d="M1417.54 213.914L1452 110.504H1470.07L1427.05 231.628H1407.32L1373.09 135.878L1338.63 231.628H1318.9L1275.88 110.504H1294.89L1329.36 214.154L1364.3 110.504H1382.6L1417.54 213.914Z" fill="#3E75FF"/>
<path d="M1486.54 216.069C1474.5 203.94 1468.48 188.94 1468.48 171.066C1468.48 153.193 1474.5 138.271 1486.54 126.303C1498.74 114.174 1513.8 108.11 1531.7 108.11C1549.61 108.11 1564.58 114.174 1576.63 126.303C1588.83 138.271 1594.93 153.193 1594.93 171.066C1594.93 188.94 1588.83 203.94 1576.63 216.069C1564.58 228.038 1549.61 234.022 1531.7 234.022C1513.8 234.022 1498.74 228.038 1486.54 216.069ZM1499.62 138.271C1491.06 147.049 1486.78 157.98 1486.78 171.066C1486.78 184.152 1491.06 195.163 1499.62 204.1C1508.33 212.877 1519.03 217.266 1531.7 217.266C1544.54 217.266 1555.24 212.877 1563.79 204.1C1572.35 195.323 1576.63 184.312 1576.63 171.066C1576.63 157.821 1572.35 146.809 1563.79 138.032C1555.24 129.255 1544.54 124.866 1531.7 124.866C1519.03 124.866 1508.33 129.335 1499.62 138.271Z" fill="#3E75FF"/>
<path d="M1628.95 110.504V129.893C1634.18 121.914 1641.07 116.009 1649.63 112.179C1658.34 108.349 1667.77 107.312 1677.91 109.068V126.542C1664.44 123.51 1652.87 125.585 1643.21 132.766C1633.7 139.788 1628.95 149.682 1628.95 162.449V231.628H1611.12V110.504H1628.95Z" fill="#3E75FF"/>
<path d="M1740.95 160.534L1798 231.628H1774.94L1728.83 173.699L1706.25 197.876V231.628H1688.43V54.4897H1706.25V174.417L1764.72 110.504H1787.54L1740.95 160.534Z" fill="#3E75FF"/>
</svg>
