<svg width="1798" height="304" viewBox="0 0 1798 304" fill="none" xmlns="http://www.w3.org/2000/svg">
<path d="M268.133 59.1127C267.629 58.348 266.978 57.6922 266.219 57.1834C265.448 56.6796 264.587 56.3327 263.685 56.1621C262.775 55.9623 261.834 55.9623 260.925 56.1621C260.027 56.3827 259.183 56.7884 258.447 57.3537C257.702 57.9125 257.087 58.6293 256.645 59.4533C256.156 60.2406 255.866 61.1369 255.801 62.0635C255.698 63 255.794 63.9477 256.082 64.8439C256.341 65.7051 256.783 66.4991 257.377 67.1704C270.583 84.4452 279.746 104.502 284.183 125.844C280.083 122.951 275.75 120.408 271.231 118.24H270.724C223.082 97.642 169.809 96.7341 128.644 98.1527C126.946 98.3185 125.375 99.1304 124.251 100.423C123.12 101.722 122.516 103.404 122.562 105.132C122.633 106.875 123.359 108.524 124.593 109.747C125.827 110.969 127.477 111.673 129.207 111.715C168.965 110.296 220.379 111.147 265.599 130.667C272.244 133.958 287.506 142.413 285.985 150.925C283.845 163.011 255.181 176.289 229.671 181.737C227.819 180.099 225.526 179.052 223.082 178.729C220.446 178.456 217.791 179.01 215.48 180.318C213.158 181.648 211.343 183.722 210.323 186.209C209.303 188.697 209.136 191.456 209.848 194.05C210.532 196.639 212.045 198.928 214.154 200.559C216.262 202.191 218.847 203.075 221.505 203.072C224.154 203.09 226.732 202.211 228.826 200.576C230.726 199.125 232.172 197.156 232.994 194.901C241.835 192.858 267.908 186.163 284.746 173.339C279.495 201.156 266.182 226.782 246.487 246.981C226.792 267.18 201.599 281.045 174.089 286.827C176.932 282.727 179.437 278.4 181.579 273.889V273.322C197.516 235.303 204.104 188.83 201.289 131.461C201.256 130.582 201.05 129.717 200.683 128.918C200.315 128.12 199.794 127.402 199.149 126.809C197.834 125.586 196.094 124.934 194.306 124.993C192.526 125.107 190.855 125.898 189.632 127.206C188.449 128.546 187.824 130.293 187.886 132.086C190.476 187.638 184.338 232.182 169.19 268.271C165.98 274.967 157.589 290.402 149.142 288.869C137.879 286.77 124.983 259.93 119.183 234.679H122.449C123.051 234.774 123.668 234.678 124.213 234.403C124.758 234.129 125.205 233.69 125.49 233.147C125.78 232.561 125.887 231.9 125.797 231.252C125.706 230.603 125.423 229.998 124.983 229.515C122.393 225.657 119.352 222.025 116.818 218.45L116.029 217.486C115.621 216.64 115.046 215.887 114.34 215.272L111.468 211.698C111.065 211.181 110.543 210.772 109.947 210.506C109.339 210.337 108.697 210.337 108.089 210.506C107.45 210.617 106.849 210.891 106.343 211.3C105.827 211.701 105.452 212.258 105.273 212.889C102.739 219.699 100.43 226.962 98.3468 234.452C98.1261 235.093 98.0884 235.784 98.2377 236.446C98.387 237.108 98.7174 237.715 99.1915 238.197C99.6325 238.584 100.173 238.838 100.751 238.928C101.329 239.019 101.921 238.942 102.458 238.708C103.64 238.197 104.823 237.686 106.005 237.289C108.089 246.425 114.678 271.336 126.842 287.735C106.86 283.947 87.9459 275.792 71.4287 263.845C71.7292 261.519 71.3577 259.155 70.3587 257.036C69.2784 254.617 67.438 252.623 65.1216 251.362C62.8351 250.169 60.2401 249.714 57.6881 250.057C55.1312 250.453 52.7675 251.664 50.9434 253.512C49.1193 255.36 47.9307 257.749 47.5516 260.327C47.1559 262.9 47.6109 265.532 48.8467 267.818C50.0459 270.14 51.9674 272.002 54.3168 273.119C56.6662 274.236 59.3141 274.546 61.8553 274.002H62.3621C87.4128 292.902 117.793 303.258 149.086 303.566C188.493 302.767 226.034 286.5 253.717 258.228C300.401 211.981 322.871 132.483 268.133 59.1127Z" fill="#F2F6F9"/>
<path d="M43.3282 235.871C29.0675 217.667 19.4052 196.248 15.1712 173.452C19.4247 176.529 23.9486 179.207 28.6865 181.453H29.1933C61.5176 195.412 98.4594 201.881 145.425 201.881C153.14 201.881 161.362 201.881 170.541 201.313C171.423 201.308 172.291 201.094 173.076 200.689C173.886 200.332 174.615 199.81 175.215 199.156C175.816 198.502 176.276 197.729 176.567 196.887C177.24 195.233 177.24 193.378 176.567 191.724C176.219 190.904 175.7 190.168 175.047 189.567C174.381 188.983 173.619 188.522 172.794 188.205C171.959 187.927 171.083 187.793 170.204 187.808C131.234 189.397 80.4954 188.66 34.6558 168.856C28.0107 165.621 12.7497 157.507 14.2702 148.655C16.4101 136.796 44.1165 123.688 68.951 118.24L69.4578 118.864C70.9783 120.453 73.1745 120.453 77.1728 120.453H81.0585C85.1131 120.453 87.3657 120.453 88.8298 118.864C90.294 117.276 90.3503 115.062 90.3503 111.09V107.175C90.3503 103.089 90.3503 100.876 88.8298 99.3444C87.3093 97.8123 84.9441 97.8122 81.0585 97.8122H77.2855C73.2309 97.8122 71.0345 97.8122 69.5704 99.401C68.9786 100.133 68.539 100.977 68.2778 101.884C68.0166 102.791 67.9391 103.741 68.05 104.678C49.6186 108.437 32.0471 115.635 16.241 125.901C22.0815 98.8756 35.5394 74.1236 54.9985 54.6165C74.4576 35.1095 99.0908 21.6765 125.941 15.9306C123.077 20.0365 120.571 24.3842 118.451 28.925V29.4357C98.347 76.4198 97.1643 129.305 98.4595 170.161C98.4776 171.033 98.666 171.892 99.0139 172.691C99.3617 173.489 99.8623 174.211 100.487 174.814C101.126 175.445 101.883 175.941 102.715 176.272C103.546 176.603 104.436 176.764 105.33 176.743C106.219 176.703 107.095 176.511 107.92 176.176C108.724 175.783 109.45 175.245 110.06 174.587C110.678 173.955 111.158 173.198 111.468 172.368C111.779 171.537 111.913 170.65 111.862 169.764C110.68 130.553 111.862 79.7677 130.84 34.7696C137.71 20.6404 144.693 13.2636 150.606 14.1715C161.869 15.8171 174.54 42.0896 180.509 67.057H177.806C177.19 67.0163 176.576 67.1551 176.037 67.457C175.497 67.7589 175.056 68.2111 174.765 68.7593C174.514 69.3383 174.433 69.9779 174.533 70.6018C174.633 71.2256 174.909 71.8073 175.328 72.2774C179.777 78.5192 184.338 84.4774 188.787 90.0383C189.16 90.5717 189.676 90.9879 190.273 91.2389C190.871 91.4899 191.527 91.5654 192.166 91.4569C192.81 91.3613 193.415 91.0862 193.912 90.6626C194.395 90.255 194.764 89.7266 194.982 89.1304C197.46 82.2643 199.825 75.0011 201.908 67.5109C202.115 66.8636 202.141 66.1714 201.982 65.5104C201.823 64.8495 201.486 64.2456 201.007 63.7658C200.56 63.3902 200.02 63.1442 199.445 63.0542C198.869 62.9642 198.28 63.0337 197.741 63.2551C196.461 63.8674 195.145 64.3981 193.799 64.8439C189.917 47.2318 182.875 30.4823 173.019 15.4199C192.922 19.134 211.778 27.1909 228.263 39.0254V41.8626C228.263 45.9482 228.263 48.1613 229.784 49.6933C231.304 51.2254 233.669 51.1686 237.499 51.1686H241.384C245.439 51.1686 247.692 51.1686 249.099 49.6365C250.507 48.1045 250.62 45.9482 250.62 41.8626V38.1743C250.62 34.0887 250.62 31.8757 249.099 30.3436C247.579 28.8115 245.214 28.8114 241.384 28.8114H236.823C166.487 -21.2936 90.4067 0.439464 46.1439 44.6998C-0.484089 91.003 -22.7282 170.558 32.6284 244.042C33.2384 244.894 34.052 245.577 34.9937 246.028C35.9224 246.486 36.9444 246.719 37.9783 246.709C39.4418 246.717 40.8671 246.238 42.0329 245.347C42.7624 244.833 43.3606 244.153 43.7786 243.361C44.2335 242.599 44.5215 241.748 44.6233 240.864C44.7933 240.002 44.7933 239.115 44.6233 238.254C44.3688 237.374 43.9269 236.561 43.3282 235.871Z" fill="#F2F6F9"/>
<path d="M431.14 231.242H412.6V63.6781H475.35C491.037 63.6781 503.793 68.4656 513.618 78.0407C523.601 87.4561 528.592 99.3452 528.592 113.708C528.592 127.911 523.601 139.8 513.618 149.375C503.793 158.79 491.037 163.498 475.35 163.498H431.14V231.242ZM431.14 80.6738V146.502H475.35C485.333 146.502 493.493 143.39 499.832 137.167C506.329 130.783 509.577 122.884 509.577 113.468C509.577 104.053 506.329 96.2333 499.832 90.0095C493.493 83.7857 485.333 80.6738 475.35 80.6738H431.14Z" fill="#F2F6F9"/>
<path d="M535.803 74.2106C535.803 70.8594 536.912 68.0666 539.13 65.8325C541.349 63.5983 544.122 62.4812 547.449 62.4812C550.619 62.4812 553.312 63.5983 555.531 65.8325C557.908 68.0666 559.096 70.8594 559.096 74.2106C559.096 77.4023 557.908 80.1153 555.531 82.3494C553.312 84.5836 550.619 85.7007 547.449 85.7007C544.122 85.7007 541.349 84.5836 539.13 82.3494C536.912 80.1153 535.803 77.4023 535.803 74.2106ZM556.244 231.242H538.417V110.117H556.244V231.242Z" fill="#F2F6F9"/>
<path d="M636.375 107.723C651.27 107.723 663.551 112.67 673.217 122.565C683.041 132.459 687.954 144.906 687.954 159.907V231.242H670.127V162.062C670.127 151.21 666.562 142.194 659.431 135.012C652.3 127.831 643.347 124.24 632.572 124.24C621.955 124.24 613.002 127.911 605.713 135.252C598.582 142.433 595.017 151.37 595.017 162.062V231.242H577.19V110.117H595.017V129.028C604.683 114.825 618.469 107.723 636.375 107.723Z" fill="#F2F6F9"/>
<path d="M811.277 131.661V110.117H829.104V218.555C829.104 236.428 823.003 251.349 810.802 263.318C798.759 275.446 783.785 281.511 765.879 281.511C753.043 281.511 741.634 278.239 731.651 271.696C721.668 265.313 714.142 256.775 709.071 246.083L725.234 238.423C729.037 246.562 734.504 253.025 741.634 257.812C748.765 262.6 756.846 264.994 765.879 264.994C778.714 264.994 789.489 260.525 798.204 251.589C806.92 242.811 811.277 231.8 811.277 218.555V208.261C800.027 224.22 784.26 232.199 763.977 232.199C746.705 232.199 732.206 226.294 720.48 214.485C708.912 202.516 703.129 187.675 703.129 169.961C703.129 152.247 708.912 137.486 720.48 125.677C732.206 113.708 746.705 107.723 763.977 107.723C784.26 107.723 800.027 115.703 811.277 131.661ZM766.354 215.682C779.189 215.682 789.885 211.294 798.442 202.516C806.999 193.739 811.277 182.888 811.277 169.961C811.277 157.035 806.999 146.263 798.442 137.645C789.885 128.868 779.189 124.48 766.354 124.48C753.677 124.48 742.981 128.868 734.266 137.645C725.709 146.263 721.431 157.035 721.431 169.961C721.431 182.888 725.709 193.739 734.266 202.516C742.981 211.294 753.677 215.682 766.354 215.682Z" fill="#F2F6F9"/>
<path d="M1033.64 200.601V63.6781H1052.18V231.242H1033.87L930.241 94.3183V231.242H911.701V63.6781H930.003L1033.64 200.601Z" fill="#F2F6F9"/>
<path d="M1130.32 107.723C1148.86 107.723 1164.07 114.346 1175.95 127.592C1188 140.678 1193.3 156.875 1191.88 176.185H1086.11C1087.37 188.313 1092.21 198.287 1100.6 206.107C1109.16 213.767 1119.54 217.597 1131.74 217.597C1141.09 217.597 1149.41 215.283 1156.7 210.655C1163.99 206.027 1169.53 199.724 1173.34 191.744L1188.55 198.208C1183.48 208.9 1175.95 217.517 1165.97 224.06C1155.99 230.444 1144.5 233.635 1131.5 233.635C1113.6 233.635 1098.54 227.651 1086.34 215.682C1074.3 203.554 1068.28 188.553 1068.28 170.679C1068.28 152.806 1074.22 137.885 1086.11 125.916C1097.99 113.788 1112.73 107.723 1130.32 107.723ZM1130.32 123.762C1119.38 123.762 1109.87 127.272 1101.79 134.294C1093.71 141.316 1088.64 150.332 1086.58 161.344H1173.81C1172.07 150.492 1167.16 141.555 1159.08 134.534C1151.15 127.352 1141.57 123.762 1130.32 123.762Z" fill="#F2F6F9"/>
<path d="M1219.69 126.395H1192.59V110.117H1219.69V66.79L1237.52 61.2843V110.117H1274.12V126.395H1237.52V190.069C1237.52 199.006 1239.42 205.389 1243.22 209.219C1247.02 213.049 1253.28 214.964 1262 214.964H1274.12V231.242H1262C1247.58 231.242 1236.88 227.811 1229.91 220.948C1223.1 214.086 1219.69 203.554 1219.69 189.351V126.395Z" fill="#F2F6F9"/>
<path d="M1417.54 213.528L1452 110.117H1470.07L1427.05 231.242H1407.32L1373.09 135.491L1338.63 231.242H1318.9L1275.88 110.117H1294.89L1329.36 213.767L1364.3 110.117H1382.6L1417.54 213.528Z" fill="#F2F6F9"/>
<path d="M1486.54 215.682C1474.5 203.554 1468.48 188.553 1468.48 170.679C1468.48 152.806 1474.5 137.885 1486.54 125.916C1498.74 113.788 1513.8 107.723 1531.7 107.723C1549.61 107.723 1564.58 113.788 1576.63 125.916C1588.83 137.885 1594.93 152.806 1594.93 170.679C1594.93 188.553 1588.83 203.554 1576.63 215.682C1564.58 227.651 1549.61 233.635 1531.7 233.635C1513.8 233.635 1498.74 227.651 1486.54 215.682ZM1499.62 137.885C1491.06 146.662 1486.78 157.593 1486.78 170.679C1486.78 183.765 1491.06 194.777 1499.62 203.713C1508.33 212.49 1519.03 216.879 1531.7 216.879C1544.54 216.879 1555.24 212.49 1563.79 203.713C1572.35 194.936 1576.63 183.925 1576.63 170.679C1576.63 157.434 1572.35 146.423 1563.79 137.645C1555.24 128.868 1544.54 124.48 1531.7 124.48C1519.03 124.48 1508.33 128.948 1499.62 137.885Z" fill="#F2F6F9"/>
<path d="M1628.95 110.117V129.507C1634.18 121.527 1641.07 115.623 1649.63 111.793C1658.34 107.963 1667.77 106.925 1677.91 108.681V126.155C1664.44 123.123 1652.87 125.198 1643.21 132.379C1633.7 139.401 1628.95 149.295 1628.95 162.062V231.242H1611.12V110.117H1628.95Z" fill="#F2F6F9"/>
<path d="M1740.95 160.147L1798 231.242H1774.94L1728.83 173.312L1706.25 197.49V231.242H1688.43V54.103H1706.25V174.031L1764.72 110.117H1787.54L1740.95 160.147Z" fill="#F2F6F9"/>
</svg>
