<svg width="16" height="16" viewBox="0 0 16 16" fill="none" xmlns="http://www.w3.org/2000/svg">
<g clip-path="url(#clip0_2750_1203)">
<path d="M14.2877 3.12501C14.2652 3.09028 14.2358 3.06055 14.2013 3.03767C14.1668 3.0148 14.1279 2.99927 14.0872 2.99206C14.0464 2.98485 14.0046 2.98611 13.9643 2.99576C13.924 3.00541 13.8862 3.02325 13.8532 3.04816C13.8201 3.07306 13.7925 3.10451 13.7722 3.14054C13.7518 3.17656 13.7391 3.21639 13.7348 3.25754C13.7305 3.29869 13.7348 3.34028 13.7473 3.37972C13.7598 3.41915 13.7804 3.45559 13.8076 3.48675C14.5569 4.45361 15.0645 5.58515 15.2883 6.78739C15.0367 6.59515 14.7653 6.43017 14.4788 6.29524H14.4648C11.9089 5.19762 9.0501 5.14794 6.85159 5.22556C6.77526 5.23308 6.70466 5.26939 6.65419 5.32711C6.60371 5.38482 6.57715 5.45959 6.57993 5.53619C6.5827 5.61278 6.61459 5.68544 6.66911 5.73936C6.72363 5.79328 6.79667 5.8244 6.87335 5.82639C9.01437 5.75031 11.7831 5.79534 14.2286 6.84328C14.6948 7.06995 15.4405 7.51552 15.3566 7.98593C15.2308 8.69077 13.5761 9.40493 12.2492 9.68127C12.1568 9.5904 12.0371 9.53245 11.9084 9.51635C11.7798 9.50026 11.6494 9.52691 11.5374 9.59221C11.4255 9.65751 11.3381 9.75782 11.2889 9.87766C11.2396 9.9975 11.2312 10.1302 11.265 10.2553C11.2987 10.3804 11.3727 10.4909 11.4756 10.5697C11.5784 10.6486 11.7044 10.6915 11.834 10.6917C11.9637 10.6919 12.0898 10.6495 12.1929 10.571C12.296 10.4925 12.3704 10.3822 12.4046 10.2573C13.3275 10.0554 14.5798 9.63625 15.3225 9.01525C15.0566 10.5646 14.3224 11.9956 13.2186 13.1157C12.1148 14.2359 10.6943 14.9916 9.14799 15.2812C9.33758 15.0304 9.50105 14.7609 9.63586 14.477V14.4615C10.4935 12.4432 10.8415 9.9747 10.697 6.9147C10.6933 6.83523 10.6582 6.76049 10.5993 6.70692C10.5405 6.65334 10.4627 6.62533 10.3832 6.62904C10.3037 6.63274 10.2289 6.66786 10.1753 6.72668C10.1216 6.78549 10.0936 6.86317 10.0973 6.94264C10.2356 9.90639 9.9062 12.2879 9.08739 14.2193C8.86055 14.685 8.41463 15.4302 7.94541 15.3464C7.25867 15.2237 6.56416 13.6557 6.27206 12.3469C6.35693 12.3423 6.44199 12.3423 6.52687 12.3469C6.62941 12.3547 6.68224 12.2584 6.60921 12.1653C6.45384 11.9402 6.28449 11.7259 6.12135 11.5163C6.10172 11.4762 6.07363 11.4407 6.039 11.4123L5.88363 11.2198C5.86956 11.2007 5.85053 11.1857 5.82858 11.1766C5.80664 11.1675 5.78262 11.1645 5.75912 11.168C5.73561 11.1715 5.71351 11.1814 5.6952 11.1966C5.6769 11.2117 5.66308 11.2316 5.65523 11.254C5.52472 11.6079 5.40042 11.9899 5.28545 12.3982C5.25437 12.51 5.32895 12.5891 5.42373 12.5534C5.50762 12.5156 5.59375 12.4829 5.68165 12.4556C5.88829 13.37 6.30313 14.5732 6.90131 15.306C5.75055 15.115 4.66008 14.6589 3.71619 13.974C3.73987 13.8507 3.72334 13.723 3.66904 13.6098C3.61474 13.4966 3.52552 13.4037 3.4145 13.3449C3.30348 13.2861 3.17651 13.2644 3.05225 13.283C2.92798 13.3017 2.81297 13.3596 2.72412 13.4484C2.63527 13.5372 2.57726 13.6521 2.55861 13.7763C2.53996 13.9005 2.56166 14.0273 2.62051 14.1383C2.67937 14.2492 2.77229 14.3384 2.88561 14.3926C2.99892 14.4469 3.12667 14.4634 3.25008 14.4397L3.30601 14.4226C4.84885 15.5327 6.44297 16 7.95318 16C10.1175 16 12.1094 15.0405 13.5295 13.6479C16.0123 11.2012 17.2102 7.00474 14.2877 3.12501Z" fill="#3E75FF"/>
<path d="M0.675379 9.0463C0.934848 9.2465 1.21509 9.41826 1.51128 9.55863H1.52371C3.60569 10.4498 5.83528 10.6454 7.75567 10.6454C8.22179 10.6454 8.67702 10.633 9.10274 10.6159C9.14212 10.6143 9.18079 10.6049 9.21655 10.5883C9.25231 10.5718 9.28445 10.5483 9.31114 10.5194C9.33783 10.4904 9.35855 10.4564 9.37211 10.4194C9.38567 10.3825 9.39181 10.3432 9.39018 10.3038C9.38855 10.2645 9.37918 10.2258 9.3626 10.1901C9.34602 10.1544 9.32256 10.1223 9.29356 10.0956C9.26456 10.0689 9.23059 10.0482 9.19358 10.0347C9.15658 10.0211 9.11726 10.015 9.07788 10.0166C6.9757 10.1005 4.24582 10.0616 1.76764 9.00283C1.30153 8.77772 0.555743 8.3306 0.639643 7.86174C0.763941 7.17087 2.34873 6.46448 3.66784 6.18347C3.6765 6.2061 3.68972 6.2267 3.70668 6.24402C3.77039 6.30922 3.87293 6.30922 4.07802 6.30922H4.28777C4.49286 6.30922 4.59852 6.30922 4.66067 6.24402C4.72281 6.17881 4.72437 6.0779 4.72437 5.87297V5.66338C4.72437 5.45845 4.72437 5.35288 4.66067 5.29078C4.59696 5.22868 4.49286 5.22712 4.28777 5.22712H4.08424C3.87915 5.22712 3.77349 5.22712 3.7129 5.29078C3.6523 5.35443 3.65075 5.42895 3.64919 5.57954C2.73095 5.77516 1.47399 6.20055 0.714222 6.80603C1.00781 5.29348 1.7482 3.90351 2.8399 2.81543C3.93159 1.72735 5.32451 0.991066 6.83898 0.701549C6.64988 0.953466 6.48693 1.22396 6.35266 1.50885V1.52283C5.26506 4.03169 5.21068 6.83708 5.27749 8.99973C5.27952 9.07784 5.312 9.15208 5.36802 9.2066C5.42404 9.26113 5.49916 9.29163 5.57736 9.2916H5.58668C5.62627 9.29061 5.66526 9.28175 5.70138 9.26554C5.7375 9.24933 5.77003 9.2261 5.79708 9.19719C5.82412 9.16829 5.84514 9.1343 5.8589 9.0972C5.87266 9.0601 5.87889 9.02063 5.87723 8.9811C5.81352 6.8821 5.87723 4.16831 6.90268 1.76657C7.28334 0.990316 7.67954 0.588214 8.02913 0.636342C8.67392 0.729493 9.3793 2.17644 9.70092 3.5737C9.62635 3.5737 9.54555 3.5737 9.47874 3.5737C9.3762 3.5737 9.32337 3.66219 9.39484 3.75534C9.63619 4.08758 9.87701 4.40274 10.1173 4.70082C10.1314 4.71996 10.1504 4.7349 10.1724 4.74403C10.1943 4.75316 10.2183 4.75612 10.2418 4.75261C10.2653 4.74909 10.2874 4.73923 10.3057 4.72408C10.3241 4.70894 10.3379 4.68908 10.3457 4.66666C10.4762 4.31269 10.6005 3.93077 10.7155 3.52246C10.7466 3.41068 10.6704 3.3315 10.5757 3.36721C10.4843 3.40832 10.3903 3.44358 10.2944 3.47278C10.08 2.54128 9.65897 1.38155 9.07944 0.678261C10.2237 0.863838 11.3093 1.31239 12.2506 1.98858V2.17178C12.2506 2.37826 12.2506 2.48228 12.3143 2.54438C12.378 2.60648 12.4805 2.60803 12.6856 2.60803H12.8954C13.1005 2.60803 13.2061 2.60803 13.2667 2.54438C13.3273 2.48073 13.3304 2.37826 13.3304 2.17178V1.97461C13.3304 1.76812 13.3304 1.66411 13.2667 1.60201C13.203 1.5399 13.1005 1.53835 12.8954 1.53835H12.639C8.89144 -1.11955 4.85799 0.00136434 2.45905 2.36584C-0.0269004 4.8126 -1.21083 9.01836 1.73968 12.8996C1.76766 12.9365 1.80384 12.9664 1.84537 12.9869C1.88691 13.0073 1.93264 13.0179 1.97895 13.0176C2.04441 13.0171 2.10803 12.9959 2.16073 12.9571C2.19211 12.9332 2.21844 12.9033 2.23824 12.8692C2.25804 12.8351 2.27091 12.7974 2.2761 12.7583C2.2813 12.7192 2.27872 12.6795 2.26852 12.6414C2.25833 12.6033 2.2407 12.5676 2.21667 12.5364C1.41542 11.5222 0.885075 10.3213 0.675379 9.0463Z" fill="#3E75FF"/>
</g>
<defs>
<clipPath id="clip0_2750_1203">
<rect width="16" height="16" fill="white"/>
</clipPath>
</defs>
</svg>
