<svg width="1925" height="700" viewBox="0 0 1925 700" fill="none" xmlns="http://www.w3.org/2000/svg">
<path d="M1244.56 171.016C1244.56 163.292 1247.13 156.856 1252.28 151.707C1257.42 146.557 1263.86 143.983 1271.58 143.983C1278.93 143.983 1285.18 146.557 1290.32 151.707C1295.84 156.856 1298.59 163.292 1298.59 171.016C1298.59 178.372 1295.84 184.624 1290.32 189.774C1285.18 194.923 1278.93 197.497 1271.58 197.497C1263.86 197.497 1257.42 194.923 1252.28 189.774C1247.13 184.624 1244.56 178.372 1244.56 171.016Z" fill="#3E75FF"/>
<path d="M1291.98 532.928H1250.62V253.77H1291.98V532.928Z" fill="#3E75FF"/>
<path d="M1563.32 282.458C1540.9 259.655 1512.41 248.253 1477.86 248.253C1436.32 248.253 1404.34 264.62 1381.92 297.354V253.77H1340.57V532.928H1381.92V373.488C1381.92 348.846 1390.19 328.249 1406.73 311.698C1423.64 294.78 1444.41 286.32 1469.04 286.32C1494.03 286.32 1514.8 294.596 1531.34 311.147C1547.88 327.697 1556.15 348.478 1556.15 373.488V532.928H1597.51V368.523C1597.51 333.95 1586.11 305.262 1563.32 282.458Z" fill="#3E75FF"/>
<path fill-rule="evenodd" clip-rule="evenodd" d="M1883.58 253.77V303.423C1857.48 266.643 1820.91 248.253 1773.86 248.253C1733.79 248.253 1700.16 262.046 1672.96 289.63C1646.12 316.847 1632.71 350.869 1632.71 391.694C1632.71 432.52 1646.12 466.725 1672.96 494.309C1700.16 521.526 1733.79 535.135 1773.86 535.135C1820.91 535.135 1857.48 516.745 1883.58 479.965V503.688C1883.58 534.215 1873.47 559.593 1853.26 579.822C1833.04 600.419 1808.04 610.717 1778.27 610.717C1757.32 610.717 1738.57 605.2 1722.03 594.166C1705.49 583.132 1692.81 568.237 1683.98 549.479L1646.49 567.133C1658.25 591.775 1675.71 611.453 1698.87 626.165C1722.03 641.244 1748.49 648.784 1778.27 648.784C1819.81 648.784 1854.54 634.808 1882.48 606.855C1910.78 579.27 1924.93 544.881 1924.93 503.688V253.77H1883.58ZM1853.81 466.725C1833.96 486.953 1809.15 497.068 1779.37 497.068C1749.97 497.068 1725.15 486.953 1704.94 466.725C1685.09 446.496 1675.16 421.486 1675.16 391.694C1675.16 361.903 1685.09 337.076 1704.94 317.215C1725.15 296.986 1749.97 286.872 1779.37 286.872C1809.15 286.872 1833.96 296.986 1853.81 317.215C1873.66 337.076 1883.58 361.903 1883.58 391.694C1883.58 421.486 1873.66 446.496 1853.81 466.725Z" fill="#3E75FF"/>
<path fill-rule="evenodd" clip-rule="evenodd" d="M958.762 532.928H1001.77V376.798H1104.32C1140.71 376.798 1170.31 365.948 1193.1 344.248C1216.25 322.18 1227.83 294.78 1227.83 262.046C1227.83 228.944 1216.25 201.543 1193.1 179.843C1170.31 157.775 1140.71 146.741 1104.32 146.741H958.762V532.928ZM1001.77 337.628V185.912H1104.32C1127.48 185.912 1146.41 193.084 1161.12 207.428C1176.19 221.772 1183.72 239.794 1183.72 261.494C1183.72 283.194 1176.19 301.4 1161.12 316.112C1146.41 330.456 1127.48 337.628 1104.32 337.628H1001.77Z" fill="#3E75FF"/>
<path d="M625.272 136.295C624.095 134.531 622.577 133.019 620.807 131.846C619.011 130.684 617.003 129.884 614.898 129.491C612.778 129.03 610.583 129.03 608.463 129.491C606.367 129.999 604.4 130.935 602.685 132.238C600.946 133.527 599.512 135.18 598.483 137.08C597.341 138.896 596.665 140.962 596.513 143.099C596.273 145.259 596.497 147.444 597.17 149.511C597.773 151.497 598.803 153.328 600.19 154.876C630.984 194.711 652.351 240.961 662.699 290.175C653.137 283.505 643.034 277.64 632.495 272.641H631.313C520.215 225.143 395.986 223.049 299.99 226.32C296.032 226.703 292.369 228.575 289.747 231.555C287.108 234.551 285.701 238.43 285.807 242.415C285.973 246.433 287.667 250.237 290.545 253.056C293.422 255.875 297.269 257.497 301.303 257.594C394.016 254.322 513.912 256.285 619.363 301.297C634.858 308.887 670.447 328.384 666.901 348.011C661.911 375.882 595.069 406.501 535.58 419.063C531.261 415.287 525.913 412.873 520.215 412.128C514.068 411.497 507.875 412.777 502.487 415.792C497.072 418.859 492.84 423.641 490.461 429.377C488.082 435.113 487.693 441.477 489.355 447.458C490.948 453.428 494.478 458.705 499.395 462.468C504.311 466.231 510.339 468.269 516.538 468.263C522.716 468.303 528.727 466.276 533.61 462.506C538.04 459.161 541.413 454.619 543.328 449.421C563.945 444.71 624.747 429.27 664.012 399.697C651.767 463.845 620.721 522.938 574.793 569.516C528.866 616.094 470.117 648.067 405.966 661.399C412.594 651.945 418.436 641.968 423.432 631.565V630.256C460.596 542.586 475.96 435.42 469.394 303.129C469.318 301.101 468.837 299.107 467.981 297.265C467.124 295.423 465.908 293.769 464.404 292.4C461.337 289.581 457.281 288.077 453.111 288.213C448.96 288.476 445.064 290.3 442.211 293.316C439.453 296.406 437.995 300.436 438.14 304.569C444.18 432.672 429.866 535.389 394.541 618.61C387.056 634.051 367.489 669.642 347.791 666.109C321.526 661.268 291.454 599.376 277.928 541.147H285.545C286.949 541.367 288.387 541.145 289.658 540.511C290.929 539.878 291.97 538.866 292.636 537.615C293.313 536.264 293.562 534.739 293.351 533.244C293.14 531.748 292.479 530.353 291.454 529.24C285.413 520.342 278.322 511.968 272.413 503.724L270.574 501.5C269.622 499.55 268.282 497.813 266.634 496.396L259.937 488.153C258.997 486.962 257.78 486.019 256.391 485.404C254.973 485.014 253.476 485.014 252.058 485.404C250.567 485.662 249.166 486.292 247.987 487.237C246.782 488.16 245.908 489.445 245.492 490.901C239.582 506.603 234.198 523.352 229.339 540.624C228.825 542.103 228.737 543.696 229.085 545.223C229.433 546.749 230.203 548.148 231.309 549.26C232.337 550.153 233.599 550.737 234.947 550.946C236.295 551.154 237.674 550.978 238.926 550.438C241.684 549.26 244.441 548.082 247.199 547.166C252.058 568.233 267.422 625.677 295.788 663.493C249.193 654.757 205.085 635.953 166.568 608.404C167.268 603.04 166.402 597.588 164.073 592.702C161.553 587.123 157.262 582.525 151.86 579.617C146.528 576.867 140.477 575.817 134.525 576.608C128.563 577.521 123.051 580.314 118.797 584.576C114.543 588.838 111.772 594.346 110.888 600.292C109.965 606.224 111.026 612.293 113.908 617.564C116.704 622.919 121.185 627.212 126.664 629.788C132.142 632.364 138.317 633.08 144.243 631.826H145.425C203.842 675.408 274.686 699.29 347.66 700C439.556 698.158 527.1 660.646 591.654 595.45C700.519 488.807 752.916 305.485 625.272 136.295Z" fill="#3E75FF"/>
<path d="M101.039 543.895C67.7838 501.919 45.2519 452.526 35.3784 399.959C45.2973 407.054 55.8469 413.23 66.8954 418.409H68.0772C143.456 450.598 229.602 465.516 339.124 465.516C357.115 465.516 376.288 465.515 397.693 464.207C399.749 464.194 401.773 463.702 403.602 462.768C405.493 461.944 407.192 460.741 408.593 459.232C409.994 457.723 411.067 455.942 411.744 454.001C413.313 450.186 413.313 445.908 411.744 442.093C410.932 440.202 409.724 438.507 408.199 437.121C406.647 435.774 404.869 434.711 402.946 433.98C400.998 433.339 398.956 433.029 396.905 433.064C306.031 436.728 187.711 435.027 80.8154 389.36C65.3195 381.902 29.7315 363.19 33.2772 342.778C38.2674 315.43 102.877 285.203 160.79 272.641L161.972 274.081C165.517 277.745 170.639 277.745 179.963 277.745H189.024C198.479 277.745 203.732 277.745 207.146 274.081C210.561 270.417 210.692 265.314 210.692 256.154V247.125C210.692 237.704 210.692 232.601 207.146 229.068C203.601 225.535 198.085 225.535 189.024 225.535H180.226C170.77 225.535 165.649 225.535 162.234 229.199C160.854 230.887 159.829 232.834 159.22 234.924C158.611 237.015 158.43 239.207 158.689 241.368C115.708 250.036 74.732 266.633 37.8731 290.306C51.4929 227.987 82.8758 170.91 128.253 125.927C173.631 80.9438 231.074 49.9677 293.687 36.7175C287.009 46.1858 281.166 56.2115 276.221 66.6825V67.8601C229.34 176.204 226.582 298.157 229.602 392.37C229.644 394.38 230.084 396.362 230.895 398.203C231.706 400.044 232.873 401.708 234.33 403.1C235.819 404.555 237.585 405.698 239.525 406.462C241.464 407.226 243.538 407.596 245.623 407.549C247.696 407.456 249.739 407.013 251.664 406.24C253.539 405.335 255.231 404.093 256.654 402.577C258.095 401.118 259.214 399.374 259.938 397.459C260.661 395.543 260.974 393.497 260.856 391.454C258.099 301.036 260.856 183.925 305.112 80.1601C321.133 47.5782 337.417 30.5676 351.205 32.6612C377.47 36.4559 407.017 97.0399 420.937 154.614H414.633C413.198 154.52 411.766 154.84 410.508 155.537C409.25 156.233 408.221 157.275 407.542 158.54C406.956 159.875 406.768 161.35 407.001 162.788C407.234 164.227 407.878 165.568 408.855 166.652C419.23 181.046 429.867 194.785 440.241 207.609C441.111 208.839 442.313 209.798 443.707 210.377C445.101 210.956 446.631 211.13 448.12 210.88C449.622 210.659 451.032 210.025 452.191 209.048C453.319 208.108 454.179 206.89 454.687 205.515C460.465 189.682 465.98 172.933 470.839 155.661C471.322 154.168 471.381 152.572 471.01 151.048C470.64 149.524 469.853 148.131 468.738 147.025C467.695 146.158 466.435 145.591 465.093 145.384C463.752 145.176 462.379 145.337 461.121 145.847C458.137 147.259 455.067 148.483 451.928 149.511C442.875 108.898 426.453 70.2736 403.471 35.5399C449.884 44.1047 493.854 62.6838 532.297 89.9739V96.5164C532.297 105.938 532.297 111.041 535.843 114.574C539.389 118.107 544.904 117.976 553.834 117.976H562.895C572.35 117.976 577.603 117.976 580.886 114.443C584.169 110.91 584.432 105.938 584.432 96.5164V88.0112C584.432 78.59 584.432 73.4867 580.886 69.9537C577.34 66.4208 571.825 66.4205 562.895 66.4205H552.258C388.238 -49.1207 210.823 0.995377 107.605 103.059C-1.12887 209.833 -53.001 393.286 76.0876 562.738C77.51 564.702 79.4073 566.277 81.6033 567.317C83.7691 568.373 86.1523 568.911 88.5633 568.887C91.9761 568.907 95.2998 567.803 98.0184 565.747C99.7195 564.562 101.115 562.993 102.089 561.168C103.15 559.41 103.822 557.447 104.059 555.41C104.455 553.423 104.455 551.378 104.059 549.391C103.466 547.362 102.435 545.486 101.039 543.895Z" fill="#3E75FF"/>
</svg>
