<svg width="400" height="129" viewBox="0 0 400 129" fill="none" xmlns="http://www.w3.org/2000/svg">
<path d="M113.824 25.892C113.645 25.6151 113.41 25.378 113.135 25.1957C112.861 25.0133 112.551 24.8895 112.226 24.832C111.902 24.7745 111.568 24.7846 111.248 24.8615C110.927 24.9384 110.625 25.0807 110.362 25.2792C110.099 25.4778 109.879 25.7286 109.717 26.0158C109.555 26.303 109.453 26.6205 109.419 26.9486C109.385 27.2767 109.419 27.6083 109.519 27.9227C109.619 28.2371 109.782 28.5276 109.999 28.776C115.968 36.4846 120.012 45.5061 121.795 55.0912C119.791 53.5585 117.629 52.2432 115.346 51.1675H115.235C94.8735 42.4164 72.0983 42.0203 54.5837 42.6392C53.9756 42.6991 53.4132 42.9886 53.011 43.4488C52.6089 43.9089 52.3974 44.505 52.4195 45.1157C52.4415 45.7264 52.6956 46.3057 53.1299 46.7356C53.5643 47.1654 54.1461 47.4136 54.757 47.4294C71.8136 46.8229 93.8708 47.1818 113.353 55.5368C117.067 57.344 123.008 60.8964 122.34 64.6469C121.337 70.2664 108.155 75.9602 97.5842 78.1635C96.8481 77.439 95.894 76.9769 94.8692 76.8486C93.8444 76.7202 92.8058 76.9328 91.9138 77.4534C91.0218 77.974 90.326 78.7738 89.9337 79.7292C89.5414 80.6846 89.4745 81.7426 89.7433 82.7398C90.0121 83.737 90.6016 84.6181 91.4209 85.2469C92.2402 85.8757 93.2438 86.2175 94.2766 86.2192C95.3094 86.221 96.3141 85.8828 97.1356 85.2569C97.9571 84.6309 98.5497 83.7519 98.822 82.7556C106.174 81.1465 116.151 77.8045 122.067 72.8534C119.949 85.2064 114.1 96.6148 105.307 105.546C96.5134 114.476 85.1968 120.501 72.8781 122.81C74.3885 120.811 75.6908 118.662 76.7647 116.398V116.275C83.5973 100.184 86.3699 80.5029 85.2188 56.1062C85.1892 55.4726 84.9092 54.8767 84.4403 54.4496C83.9714 54.0225 83.352 53.7992 82.7184 53.8287C82.0849 53.8583 81.489 54.1383 81.0619 54.6072C80.6347 55.0761 80.4114 55.6954 80.4409 56.329C81.5426 79.9582 78.9185 98.9458 72.3954 114.344C70.5882 118.057 67.0358 123.998 63.2977 123.33C57.8267 122.352 52.2938 109.851 49.9668 99.4161C50.6429 99.3791 51.3206 99.3791 51.9968 99.4161C52.8137 99.478 53.2345 98.7106 52.6528 97.9679C51.415 96.1732 50.0658 94.465 48.7661 92.794C48.6098 92.4736 48.386 92.1907 48.1101 91.9647L46.8723 90.4299C46.7603 90.2772 46.6086 90.1581 46.4338 90.0854C46.259 90.0126 46.0677 89.989 45.8804 90.017C45.6931 90.045 45.5171 90.1236 45.3712 90.2444C45.2254 90.3651 45.1153 90.5234 45.0528 90.7022C44.0131 93.5243 43.0228 96.5692 42.1069 99.8246C41.8593 100.716 42.4535 101.347 43.2085 101.062C43.8768 100.761 44.563 100.5 45.2632 100.283C46.9095 107.573 50.2143 117.166 54.9798 123.008C45.8122 121.485 37.1248 117.849 29.6053 112.388C29.7939 111.405 29.6623 110.387 29.2297 109.484C28.7971 108.582 28.0863 107.842 27.2019 107.373C26.3174 106.904 25.3059 106.731 24.3159 106.879C23.326 107.028 22.4098 107.49 21.7019 108.198C20.994 108.906 20.5319 109.822 20.3833 110.812C20.2348 111.802 20.4076 112.814 20.8765 113.698C21.3454 114.582 22.0856 115.293 22.9884 115.726C23.8911 116.158 24.9088 116.29 25.892 116.101L26.3376 115.965C38.6287 124.815 51.3283 128.541 63.3596 128.541C80.6018 128.541 96.4702 120.892 107.783 109.789C127.563 90.2813 137.107 56.8241 113.824 25.892Z" fill="#3E75FF"/>
<path d="M5.38046 73.101C7.44754 74.6971 9.68009 76.0665 12.0397 77.1857H12.1387C28.725 84.2905 46.4871 85.8501 61.7861 85.8501C65.4994 85.8501 69.1261 85.7511 72.5176 85.6149C72.8314 85.6019 73.1394 85.5273 73.4243 85.3952C73.7092 85.2631 73.9652 85.0763 74.1779 84.8452C74.3905 84.6142 74.5556 84.3436 74.6636 84.0487C74.7716 83.7539 74.8205 83.4407 74.8075 83.127C74.7945 82.8133 74.7199 82.5052 74.5878 82.2203C74.4557 81.9355 74.2689 81.6794 74.0378 81.4668C73.8068 81.2542 73.5361 81.0891 73.2413 80.9811C72.9465 80.873 72.6333 80.8241 72.3196 80.8371C55.5724 81.5055 33.8246 81.1961 14.0821 72.7544C10.3687 70.9596 4.42736 67.3948 5.09576 63.6567C6.08599 58.1486 18.7114 52.5167 29.2201 50.2763C29.2891 50.4567 29.3944 50.621 29.5295 50.7591C30.037 51.2789 30.854 51.2789 32.4878 51.2789H34.1588C35.7927 51.2789 36.6344 51.2789 37.1295 50.7591C37.6246 50.2392 37.637 49.4346 37.637 47.8008V46.1298C37.637 44.4959 37.637 43.6542 37.1295 43.1591C36.622 42.664 35.7927 42.6516 34.1588 42.6516H32.5374C30.9035 42.6516 30.0618 42.6516 29.5791 43.1591C29.0963 43.6666 29.0839 44.2607 29.0716 45.4614C21.7563 47.021 11.7426 50.4125 5.6899 55.2398C8.02879 43.1806 13.9272 32.0988 22.6243 23.4238C31.3213 14.7488 42.4181 8.87857 54.4832 6.57032C52.9767 8.5788 51.6786 10.7354 50.6089 13.0068V13.1182C41.9445 33.1207 41.5113 55.4874 42.0435 72.7297C42.0596 73.3525 42.3184 73.9443 42.7647 74.379C43.211 74.8137 43.8094 75.0569 44.4324 75.0567H44.5067C44.822 75.0488 45.1327 74.9781 45.4204 74.8489C45.7082 74.7197 45.9674 74.5344 46.1828 74.304C46.3983 74.0736 46.5657 73.8026 46.6753 73.5068C46.7849 73.211 46.8346 72.8963 46.8213 72.5811C46.3139 55.8463 46.8213 34.21 54.9907 15.0615C58.0233 8.87259 61.1796 5.66674 63.9646 6.05045C69.1014 6.79312 74.7209 18.3292 77.2831 29.4693C76.689 29.4693 76.0453 29.4693 75.5131 29.4693C74.6961 29.4693 74.2753 30.1748 74.8447 30.9175C76.7674 33.5663 78.6859 36.079 80.6003 38.4555C80.7124 38.6081 80.864 38.7273 81.0389 38.8C81.2137 38.8728 81.405 38.8964 81.5923 38.8684C81.7795 38.8404 81.9556 38.7617 82.1015 38.641C82.2473 38.5203 82.3574 38.362 82.4199 38.1832C83.4596 35.3611 84.4498 32.3161 85.3658 29.0608C85.6134 28.1696 85.0069 27.5383 84.2518 27.823C83.5236 28.1507 82.7753 28.4319 82.0114 28.6647C80.3033 21.238 76.9489 11.9918 72.332 6.38466C81.4482 7.86422 90.0964 11.4404 97.5951 16.8315V18.2921C97.5951 19.9383 97.5951 20.7677 98.1026 21.2628C98.6101 21.7579 99.427 21.7703 101.061 21.7703H102.732C104.366 21.7703 105.207 21.7703 105.69 21.2628C106.173 20.7553 106.198 19.9383 106.198 18.2921V16.7201C106.198 15.0739 106.198 14.2446 105.69 13.7494C105.183 13.2543 104.366 13.242 102.732 13.242H100.69C70.8343 -7.94884 38.7015 0.987929 19.5902 19.8393C-0.214305 39.3467 -9.64619 72.8782 13.8592 103.823C14.0822 104.117 14.3705 104.355 14.7013 104.518C15.0322 104.681 15.3965 104.765 15.7654 104.763C16.287 104.759 16.7938 104.59 17.2136 104.281C17.4636 104.09 17.6734 103.852 17.8311 103.58C17.9888 103.308 18.0913 103.008 18.1327 102.696C18.1741 102.384 18.1536 102.068 18.0724 101.764C17.9911 101.46 17.8507 101.176 17.6592 100.926C11.276 92.8406 7.05101 83.2662 5.38046 73.101Z" fill="#3E75FF"/>
<path d="M215.309 20.0501C234.066 20.0501 244.673 29.8038 244.673 45.9161C244.673 62.3754 234.103 72.176 215.309 72.176H192.519V104.063H178.451V20.0501H215.309ZM213.189 59.665C225.766 59.665 230.343 54.4974 230.343 46.0286C230.343 37.5598 225.766 32.5236 213.189 32.5236H192.557V59.7213L213.189 59.665ZM252.373 28.5377C252.338 27.5852 252.491 26.6352 252.824 25.7421C253.157 24.849 253.663 24.0305 254.313 23.3334C254.963 22.6363 255.744 22.0744 256.612 21.68C257.479 21.2856 258.416 21.0663 259.369 21.0349H260.307C261.26 21.0663 262.197 21.2856 263.064 21.68C263.932 22.0744 264.713 22.6363 265.363 23.3334C266.013 24.0305 266.519 24.849 266.852 25.7421C267.185 26.6352 267.338 27.5852 267.303 28.5377C267.338 29.4902 267.185 30.4402 266.852 31.3333C266.519 32.2264 266.013 33.0449 265.363 33.742C264.713 34.4391 263.932 35.001 263.064 35.3954C262.197 35.7898 261.26 36.0091 260.307 36.0405H259.369C258.416 36.0091 257.479 35.7898 256.612 35.3954C255.744 35.001 254.963 34.4391 254.313 33.742C253.663 33.0449 253.157 32.2264 252.824 31.3333C252.491 30.4402 252.338 29.4902 252.373 28.5377ZM266.44 104.016H253.132V44.1717H266.44V104.016ZM320.358 104.016V69.2124C320.358 59.4493 315.893 54.5162 307.087 54.5162C297.568 54.5162 291.575 62.6286 291.575 72.0353V104.016H278.267V44.1717H291.537V52.4998C292.358 51.3872 293.278 50.3513 294.285 49.4049C299.059 45.0064 303.167 42.643 311.167 42.643C326.088 42.643 333.609 51.6933 333.609 66.6239V104.016H320.358ZM400 44.1717V101.071C400 118.009 388.605 128.588 371.105 128.588C355.246 128.588 344.554 121.882 343.147 109.306H356.277C357.572 115.298 362.739 117.652 370.842 117.652C382.096 117.652 387.17 111.359 387.17 99.1861V93.559C386.572 94.5961 385.855 95.5593 385.032 96.4288C381.046 100.602 375.775 103.388 367.213 103.388C350.885 103.388 340.897 90.4547 340.897 73.0575C340.897 55.6604 351.119 42.6055 367.213 42.6055C376.141 42.6055 381.14 45.6816 384.929 49.4706C385.816 50.3573 386.573 51.3645 387.18 52.4623V44.1342L400 44.1717ZM387.198 73.0951C387.198 62.7787 381.674 53.9254 370.514 53.9254C360.198 53.9254 354.186 61.8033 354.186 73.0951C354.186 84.3868 360.179 92.1428 370.514 92.1428C381.637 92.1428 387.161 83.3176 387.161 73.0951H387.198Z" fill="#3E75FF"/>
</svg>
